# xmcd
#
# Track frame offsets: 
#        150
#        17254
#        34016
#        47015
#        71775
#        92601
#        127306
#        139890
#        156999
#        196603
#        222556
#        247591
#        270514
#        293307
#
# Disc length: 4333 seconds
#
# Revision: 1
# Processed by: cddbd v1.5.1PL0 Copyright (c) Steve Scherf et al.
# Submitted via: ExactAudioCopy v0.90b4
#
DISCID=bf10eb0e
DTITLE=Peter Green - Blues By Green
DYEAR=2003
DGENRE=Blues
TTITLE0=Walking The Road
TTITLE1=Same Old Blues
TTITLE2=Born Under A Bad Sign
TTITLE3=Last Train To San Antone
TTITLE4=Just For You
TTITLE5=A Fool No More
TTITLE6=Man Of The World (Fleetwood Mac)
TTITLE7=Time For Me To Go
TTITLE8=White Sky (Love That Evil Woman)
TTITLE9=Gotta See Her Tonight
TTITLE10=Baby When The Sun Goes Down
TTITLE11=Crying Won't Bring You Back
TTITLE12=Slabo Day
TTITLE13=Little Dreamer
EXTD=
EXTT0=
EXTT1=
EXTT2=
EXTT3=
EXTT4=
EXTT5=
EXTT6=
EXTT7=
EXTT8=
EXTT9=
EXTT10=
EXTT11=
EXTT12=
EXTT13=
PLAYORDER=
